<svg width="70" height="27" viewBox="0 0 70 27" fill="none" xmlns="http://www.w3.org/2000/svg">
<path d="M11.83 17.49C12.35 17.49 12.78 17.66 13.12 18C13.48 18.32 13.66 18.74 13.66 19.26C13.66 19.76 13.48 20.18 13.12 20.52C12.78 20.84 12.35 21 11.83 21H2.08C1.56 21 1.12 20.83 0.76 20.49C0.42 20.13 0.25 19.69 0.25 19.17V1.83C0.25 1.31 0.43 0.879999 0.79 0.539999C1.15 0.179999 1.61 -1.43051e-06 2.17 -1.43051e-06C2.65 -1.43051e-06 3.07 0.179999 3.43 0.539999C3.81 0.879999 4 1.31 4 1.83V18L3.34 17.49H11.83ZM32.3657 12.99C32.3657 14.63 31.9957 16.08 31.2557 17.34C30.5357 18.58 29.5557 19.55 28.3157 20.25C27.0957 20.95 25.7257 21.3 24.2057 21.3C22.6857 21.3 21.3057 20.95 20.0657 20.25C18.8457 19.55 17.8657 18.58 17.1257 17.34C16.4057 16.08 16.0457 14.63 16.0457 12.99C16.0457 11.35 16.4057 9.91 17.1257 8.67C17.8657 7.41 18.8457 6.43 20.0657 5.73C21.3057 5.01 22.6857 4.65 24.2057 4.65C25.7257 4.65 27.0957 5.01 28.3157 5.73C29.5557 6.43 30.5357 7.41 31.2557 8.67C31.9957 9.91 32.3657 11.35 32.3657 12.99ZM28.7657 12.99C28.7657 11.97 28.5557 11.09 28.1357 10.35C27.7357 9.59 27.1857 9 26.4857 8.58C25.8057 8.16 25.0457 7.95 24.2057 7.95C23.3657 7.95 22.5957 8.16 21.8957 8.58C21.2157 9 20.6657 9.59 20.2457 10.35C19.8457 11.09 19.6457 11.97 19.6457 12.99C19.6457 13.99 19.8457 14.87 20.2457 15.63C20.6657 16.37 21.2157 16.95 21.8957 17.37C22.5957 17.79 23.3657 18 24.2057 18C25.0457 18 25.8057 17.79 26.4857 17.37C27.1857 16.95 27.7357 16.37 28.1357 15.63C28.5557 14.87 28.7657 13.99 28.7657 12.99ZM42.1764 4.65C43.0164 4.65 43.7864 4.78 44.4864 5.04C45.1864 5.3 45.7864 5.63 46.2864 6.03C46.8064 6.43 47.2064 6.84 47.4864 7.26C47.7864 7.66 47.9364 8 47.9364 8.28L47.1564 8.67V6.48C47.1564 5.96 47.3264 5.53 47.6664 5.19C48.0064 4.83 48.4364 4.65 48.9564 4.65C49.4764 4.65 49.9064 4.82 50.2464 5.16C50.5864 5.5 50.7564 5.94 50.7564 6.48V19.83C50.7564 21.57 50.3764 22.96 49.6164 24C48.8764 25.06 47.8964 25.82 46.6764 26.28C45.4564 26.76 44.1464 27 42.7464 27C42.3464 27 41.8264 26.95 41.1864 26.85C40.5464 26.75 39.9364 26.63 39.3564 26.49C38.7764 26.35 38.3364 26.22 38.0364 26.1C37.4364 25.84 37.0164 25.51 36.7764 25.11C36.5564 24.73 36.5164 24.32 36.6564 23.88C36.8364 23.3 37.1264 22.9 37.5264 22.68C37.9264 22.48 38.3464 22.46 38.7864 22.62C38.9864 22.68 39.3164 22.8 39.7764 22.98C40.2364 23.16 40.7364 23.32 41.2764 23.46C41.8364 23.62 42.3264 23.7 42.7464 23.7C44.2464 23.7 45.3564 23.4 46.0764 22.8C46.7964 22.2 47.1564 21.37 47.1564 20.31V17.7L47.5164 17.97C47.5164 18.23 47.3764 18.55 47.0964 18.93C46.8364 19.29 46.4664 19.65 45.9864 20.01C45.5264 20.37 44.9764 20.68 44.3364 20.94C43.6964 21.18 43.0164 21.3 42.2964 21.3C40.8764 21.3 39.5964 20.95 38.4564 20.25C37.3164 19.53 36.4164 18.55 35.7564 17.31C35.0964 16.05 34.7664 14.61 34.7664 12.99C34.7664 11.35 35.0964 9.91 35.7564 8.67C36.4164 7.41 37.3064 6.43 38.4264 5.73C39.5464 5.01 40.7964 4.65 42.1764 4.65ZM42.7464 7.95C41.8464 7.95 41.0564 8.17 40.3764 8.61C39.6964 9.05 39.1664 9.65 38.7864 10.41C38.4064 11.17 38.2164 12.03 38.2164 12.99C38.2164 13.93 38.4064 14.78 38.7864 15.54C39.1664 16.3 39.6964 16.9 40.3764 17.34C41.0564 17.78 41.8464 18 42.7464 18C43.6664 18 44.4664 17.78 45.1464 17.34C45.8264 16.9 46.3564 16.3 46.7364 15.54C47.1164 14.78 47.3064 13.93 47.3064 12.99C47.3064 12.03 47.1164 11.17 46.7364 10.41C46.3564 9.65 45.8264 9.05 45.1464 8.61C44.4664 8.17 43.6664 7.95 42.7464 7.95ZM69.6313 12.99C69.6313 14.63 69.2613 16.08 68.5213 17.34C67.8013 18.58 66.8213 19.55 65.5813 20.25C64.3613 20.95 62.9913 21.3 61.4713 21.3C59.9513 21.3 58.5713 20.95 57.3313 20.25C56.1113 19.55 55.1313 18.58 54.3913 17.34C53.6713 16.08 53.3113 14.63 53.3113 12.99C53.3113 11.35 53.6713 9.91 54.3913 8.67C55.1313 7.41 56.1113 6.43 57.3313 5.73C58.5713 5.01 59.9513 4.65 61.4713 4.65C62.9913 4.65 64.3613 5.01 65.5813 5.73C66.8213 6.43 67.8013 7.41 68.5213 8.67C69.2613 9.91 69.6313 11.35 69.6313 12.99ZM66.0313 12.99C66.0313 11.97 65.8213 11.09 65.4013 10.35C65.0013 9.59 64.4513 9 63.7513 8.58C63.0713 8.16 62.3113 7.95 61.4713 7.95C60.6313 7.95 59.8613 8.16 59.1613 8.58C58.4813 9 57.9313 9.59 57.5113 10.35C57.1113 11.09 56.9113 11.97 56.9113 12.99C56.9113 13.99 57.1113 14.87 57.5113 15.63C57.9313 16.37 58.4813 16.95 59.1613 17.37C59.8613 17.79 60.6313 18 61.4713 18C62.3113 18 63.0713 17.79 63.7513 17.37C64.4513 16.95 65.0013 16.37 65.4013 15.63C65.8213 14.87 66.0313 13.99 66.0313 12.99Z" fill="#FF7539"/>
</svg>
